inDegrees=yes
name=ik_coleta2_trike_5hz_mov
DataType=double
version=3
OpenSimVersion=4.4-2022-07-23-0e9fedc
endheader
time	hip_flexion_r	knee_angle_r	hip_flexion_l	knee_angle_l	gearToGround_coord_0
32.53635406494141	94.70521415633596	-67.25312270816916	101.3393556656245	-106.8968845279238	-759.9379164165
32.54235696792603	94.38249851416673	-66.92271846447555	101.6453076987798	-107.2179170899772	-760.7799554855147
32.54734516143799	94.05819452969553	-66.593096786231	101.9796744218902	-107.5051228144919	-761.6287782144323
32.55232715606689	93.7375428189216	-66.2696692925917	102.3095778901409	-107.7970992122806	-762.4736222856465
32.55638003349304	93.42354867287608	-65.95533325494932	102.6178225474732	-108.0957714327483	-763.3031639054095
32.56135296821594	93.12015158009153	-65.65393293996304	102.9451531303762	-108.3557425133088	-764.1103443782229
32.56634092330933	92.82818696372877	-65.36606614502573	103.2310294380665	-108.6803694044625	-764.8906824257668
32.57039999961853	92.54658490784514	-65.09058038030425	103.5314723311566	-108.952645913994	-765.6469916894889
32.5754017829895	92.27228996291731	-64.82422624153011	103.892753805261	-109.1185972702004	-766.3851691680101
32.5833420753479	91.98808424933831	-64.55040507263971	104.1832086692741	-109.3622053307416	-767.1591703979012
32.58939695358276	91.69500151024531	-64.27039346691662	104.4267289621841	-109.6203755361404	-767.9592533370164
32.5943431854248	91.3788977643915	-63.97111719087971	104.7678222216334	-109.8861649186144	-768.8268879680254
32.5983419418335	91.04358451973164	-63.65695701873807	105.1319640626359	-110.1676163224944	-769.7560107952487
32.60336089134216	90.68812954907037	-63.32765524734527	105.5092120474772	-110.4813964714885	-770.7477786884475
32.61233806610107	90.32376385641443	-62.99414185377544	105.9392970206439	-110.7546679299413	-771.7758869668908
32.62539887428284	89.96474496901791	-62.67006644836	106.3134494816272	-111.057966270313	-772.7946491828196
32.63133502006531	89.62022907883605	-62.36314087919063	106.6935892691137	-111.3446855692927	-773.7836132279094
32.64534401893616	89.2965576049899	-62.07863946015917	107.0582496712761	-111.622790231995	-774.722819755517
32.6533670425415	88.99555178216497	-61.81759700745749	107.4237282492768	-111.9214884408954	-775.6040434943257
32.65937614440918	88.7138025743221	-61.57646793133057	107.7246149823971	-112.0711581435736	-776.4376274437296
32.66333293914795	88.44871046440412	-61.35253702291951	108.1090520413229	-112.4151190199767	-777.2270524773637
32.66934394836426	88.19324924802804	-61.13953671750207	108.34034284236	-112.4155881147705	-777.9966079015001
32.67634701728821	87.94427643837368	-60.93466063393831	108.6701141023082	-112.5898110898194	-778.7533483487135
32.68033599853516	87.68826947356393	-60.72679607615707	108.9339004464565	-112.7812816796106	-779.53972685253
32.68636584281921	87.43090861097838	-60.52118538174144	109.2335188685307	-113.0246293423978	-780.3396513456174
32.697350025177	87.14626719998954	-60.297240476277	109.6161495749046	-113.3056656395864	-781.2330366350293
32.70338606834412	86.85432918730973	-60.07221606197282	109.9234055283377	-113.370942689612	-782.1495228752301
32.70739197731018	86.58962763003633	-60.11131602723474	110.3656546148561	-113.6236494925522	-783.3237427578997
32.7113950252533	86.25954678352819	-59.94565655382925	111.2692372467134	-114.1884795508057	-784.9397158052285
32.71634602546692	85.88444147717635	-59.68358077255517	111.5586714186135	-114.1621590299807	-786.221876558203
32.72036910057068	85.47715103605574	-59.41017774512167	112.0288521317813	-114.3850188320422	-787.6468542971705
32.72540307044983	85.04749124898795	-59.13536210262163	112.5585662876748	-114.6320030875246	-789.1872369426568
32.73033690452576	84.59203024568274	-58.860795460211	113.2151781658126	-114.8789167759252	-790.8710717805566
32.73433995246887	84.12698223414047	-58.6003068034386	113.7722584897668	-115.1300742382021	-792.6518253028477
32.73838305473328	83.65195312023695	-58.35761041582604	114.4435262698148	-115.3234326504402	-794.5410960887621
32.74336099624634	83.17689932296091	-58.14203338625334	115.2183733204726	-115.7545039672016	-796.5143545096669
32.74932813644409	82.70627745599855	-57.95939912037898	115.7770548351886	-115.6783570926715	-798.5676371261354
32.75435590744019	82.2437466568085	-57.81537020334237	116.7034599074049	-116.1066472968018	-800.698171334636
32.75835800170898	81.79444556314529	-57.7159170742653	117.1075408769046	-115.9448720581597	-802.8995612014046
32.76234412193298	81.36512568166275	-57.66585382117329	117.7778781303635	-116.0303640514503	-805.1496871128761
32.76734495162964	80.96179761789327	-57.6690214124022	118.3963298958887	-115.9867733975685	-807.4290275518727
32.77139902114868	80.58849656109641	-57.72673713256839	119.0127331515635	-115.982370545917	-809.7222630204009
32.77537512779236	80.25003663332565	-57.83805195804206	119.5568646448092	-115.8411059629616	-812.0003811321515
32.77935004234314	79.94722476052046	-58.00063225200847	120.0769068245106	-115.7144273987538	-814.2531752633467
32.78334617614746	79.67934871630945	-58.21185429167939	120.5571302850743	-115.5515231718951	-816.4777065963669
32.79139399528503	79.44549201965904	-58.4686569919772	120.9960454777471	-115.3495156137197	-818.6710731391913
32.79533314704895	79.24386756667312	-58.7686637464177	121.3954603344683	-115.1115750526753	-820.8353279627959
32.80132007598877	79.07436746032425	-59.10647177832692	121.7563049481626	-114.8441148520536	-822.9557523612142
32.8053731918335	78.93643435668542	-59.47393529044597	122.0772427778765	-114.5521144292747	-825.0082115908192
32.81133985519409	78.8291680327418	-59.85813714447961	122.3530363622067	-114.241441146095	-826.9537673032239
32.81635499000549	78.74958589427402	-60.24681672091039	122.5865916260733	-113.9221405598515	-828.7659805009613
32.82138299942017	78.69348317973505	-60.62913257302314	122.7660019962884	-113.5936263736327	-830.4317961021701
32.82538318634033	78.65566603035518	-61.00807151933727	122.9005783278014	-113.2590857718853	-831.9888210490643
32.83434700965881	78.63255512869256	-61.38963887839795	123.0013183544526	-112.9179094116495	-833.4783909669425
32.83938908576965	78.62213673578492	-61.78009459603486	123.0827471674614	-112.5676469433963	-834.9355658581455
32.84535098075867	78.62349273202399	-62.18183285978198	123.1442018645836	-112.205636405123	-836.3731030716267
32.85034894943237	78.6359157429939	-62.59022652038886	123.1828873048306	-111.8358965748063	-837.7798690147864
32.86135792732239	78.65836859468277	-63.00100318168219	123.1918423302023	-111.4628993970005	-839.1452574318647
32.86734509468079	78.68960769270686	-63.41139755946323	123.2055138393044	-111.0895372630191	-840.4676649338022
32.87440395355225	78.72933671838999	-63.82617738462671	123.1396624700226	-110.7001503714451	-841.7648054570891
32.8894419670105	78.77749507557074	-64.24895921423396	123.0268096981627	-110.2555884779917	-843.0510684429138
32.89535999298096	78.83392918690899	-64.68059982340512	123.1306403714346	-109.9273555303701	-844.3314642093961
32.90136790275574	78.89866413032146	-65.1220927313511	123.0812760361403	-109.5180211561991	-845.6081682117269
32.9053909778595	78.97142770592735	-65.5724876586044	123.0193546019569	-109.0442009792233	-846.8832937010432
32.90935277938843	79.0509244931157	-66.02532490777823	122.8472202897511	-108.6767243802671	-848.1381357984425
32.91333484649658	79.13764465958522	-66.48458355606327	122.6747774607399	-108.1930103304682	-849.3867599372649
32.91734504699707	79.23009254363292	-66.9438757742487	122.7188212596568	-107.842716913308	-850.6073998496665
32.92239093780518	79.32737772244096	-67.3992324477438	122.6231935539614	-107.3764147610351	-851.7963359439241
32.9273419380188	79.42656327390947	-67.84369133356223	122.4353539309469	-106.8251482989346	-852.944240007164
32.93235492706299	79.52742648388376	-68.27487670013511	122.2503061769528	-106.3568111664264	-854.0383316652233
32.9373459815979	79.63226622880993	-68.70566050362918	122.2436789485465	-106.1781462310135	-855.1159875590293
32.94334983825684	79.74449256584859	-69.14998994732919	121.9652075863131	-105.5310549655474	-856.2149887403839
32.94934487342834	79.87018206412557	-69.6299327078669	121.9357215598299	-105.3073771078087	-857.3855127577768
32.95539283752441	80.01375479285534	-70.15846583270549	121.5816371424833	-104.5589572449046	-858.6584316672195
32.96034908294678	80.18147702033642	-70.75308111616366	121.3111742544974	-104.1562200762084	-860.0688811847112
32.968346118927	80.37460116018214	-71.41174115319737	121.2293053915881	-103.664759588551	-861.6121092239051
32.9744029045105	80.59518992453545	-72.1350193359813	120.8092341239387	-102.7032799275877	-863.2846428903241
32.97933888435364	80.83126747507471	-72.87960783085923	120.5970807228194	-102.137714173362	-864.9747408957728
32.98434400558472	81.07826604176198	-73.63071679580163	120.2865762823149	-101.529430730605	-866.6610467674684
32.98840498924255	81.32730460355512	-74.36263923321445	119.937308146963	-100.8224870259869	-868.2880366376166
32.99935984611511	81.56719762374762	-75.04668305187174	119.4025052503877	-100.0804630215247	-869.7899228003359
33.00436902046204	81.79858660269042	-75.68872581982914	119.2712697665766	-99.57116147202294	-871.1883116369982
33.00935101509094	82.02222454092019	-76.29414756263736	118.9502316633819	-98.9941353180968	-872.4989843213264
33.0143449306488	82.23397956760718	-76.85487079573294	118.6455356347775	-98.45937901143249	-873.7027403808414
33.02144503593445	82.43591153182832	-77.37902181456815	118.3135553138987	-97.95401660550667	-874.8218192458157
33.02638506889343	82.63153247068443	-77.87761137717253	118.0895085916689	-97.46538396919924	-875.8760973502146
33.03335213661194	82.8298708985305	-78.37434113348837	117.7579259370059	-96.98862569834561	-876.9344616158279
33.04139089584351	83.03085126399033	-78.86923126947748	117.523842221544	-96.45953576722611	-877.9795118400413
33.04835081100464	83.24229000966886	-79.38118065016623	117.2261214079447	-95.9819507398531	-879.0531710768347
33.05338215827942	83.46535867243878	-79.91211758643385	116.7478369358259	-95.40373219074682	-880.16452179789
33.05739593505859	83.70829386664208	-80.4801217784204	116.5575139956183	-94.93363791134436	-881.3495009134471
33.06338286399841	83.96113070933306	-81.06064364338195	116.1915167086394	-94.37365709749849	-882.5507115914794
33.06935095787048	84.2406704757759	-81.69036620149416	115.8134871250363	-93.73215778038441	-883.8637076064932
33.07339692115784	84.53534149921597	-82.34113966952424	115.385575861393	-93.1104230382991	-885.2081133800739
33.07735586166382	84.83842557491867	-82.99748545342491	114.9664921176121	-92.45962848818685	-886.5620907818387
33.08435201644897	85.15630755746174	-83.67212241356336	114.5063720870984	-91.79727249543453	-887.9516609282985
33.09437608718872	85.4870402387451	-84.36001739089144	114.0365600934659	-91.11307544938974	-889.3678500916227
33.09836411476135	85.83317680699595	-85.06526662108651	113.5401857666026	-90.24102143245885	-890.8145347921881
33.10538411140442	86.18944411514713	-85.77623411006441	113.0344810019708	-89.68887169043278	-892.2747073370747
